<svg width="16" height="19" viewBox="0 0 16 19" fill="none" xmlns="http://www.w3.org/2000/svg">
<path d="M8.35076 0.0152131C9.34968 0 10.341 0.00766373 11.3323 0C11.3933 1.16672 11.8127 2.35631 12.6668 3.17988C13.5209 4.02632 14.7257 4.41523 15.9 4.54482V7.61787C14.8019 7.57978 13.6963 7.35101 12.6972 6.87814C12.2626 6.67992 11.8585 6.42827 11.4619 6.16896C11.4542 8.39556 11.4696 10.6223 11.4467 12.8413C11.3857 13.9089 11.0349 14.9689 10.4172 15.8457C9.41831 17.3099 7.68733 18.263 5.91049 18.2936C4.82007 18.3545 3.72965 18.0571 2.79925 17.5081C1.25884 16.6007 0.176075 14.9383 0.0159375 13.1539C0.000724385 12.7727 -0.00693926 12.3913 0.00827383 12.0178C0.145535 10.5689 0.86238 9.18104 1.97568 8.23554C3.24157 7.13745 5.01063 6.61129 6.66531 6.9239C6.68053 8.05253 6.63477 9.18104 6.63477 10.3097C5.88007 10.0657 4.99553 10.1343 4.33211 10.5919C3.85169 10.9045 3.48566 11.3849 3.29499 11.9264C3.13485 12.3153 3.1806 12.7423 3.18827 13.1541C3.37128 14.4046 4.57609 15.457 5.85719 15.3426C6.7113 15.3349 7.5272 14.8393 7.96952 14.1149C8.11445 13.8632 8.27458 13.6039 8.28213 13.3065C8.35843 11.9416 8.32789 10.5842 8.33555 9.21924C8.3431 6.14609 8.32789 3.08071 8.35076 0.0152131Z" fill="white"/>
</svg>
