<svg width="19" height="13" viewBox="0 0 19 13" fill="none" xmlns="http://www.w3.org/2000/svg">
<path d="M7.48125 8.85841L12.5875 6.32743L7.48125 3.68142V8.85841ZM9.5 0C13.5375 0 16.15 0.230088 16.15 0.230088C16.5063 0.230088 17.3375 0.230088 18.05 1.0354C18.05 1.0354 18.6438 1.61062 18.7625 2.87611C19 4.25664 19 5.75221 19 5.75221V7.13274C19 7.13274 19 8.62832 18.7625 10.1239C18.6438 11.3894 18.05 11.9646 18.05 11.9646C17.3375 12.6549 16.5063 12.6549 16.15 12.7699C16.15 12.7699 13.5375 13 9.5 13C4.5125 13 3.0875 12.7699 3.0875 12.7699C2.6125 12.6549 1.6625 12.7699 0.95 11.9646C0.95 11.9646 0.35625 11.3894 0.2375 10.1239C0 8.62832 0 7.13274 0 7.13274V5.75221C0 5.75221 0 4.25664 0.2375 2.76106C0.35625 1.49558 0.95 0.920354 0.95 0.920354C1.6625 0.230088 2.49375 0.230088 2.85 0.115044C2.85 0.230088 5.4625 0 9.5 0Z" fill="white"/>
</svg>
