<svg width="18" height="18" viewBox="0 0 18 18" fill="none" xmlns="http://www.w3.org/2000/svg">
<g clip-path="url(#clip0_3865_14605)">
<path d="M9 1.575H12.6C13.5 1.575 13.95 1.8 14.2875 1.9125C14.7375 2.025 14.9625 2.25 15.3 2.5875C15.6375 2.925 15.8625 3.15 15.975 3.6C16.0875 3.9375 16.2 4.3875 16.3125 5.2875V12.4875C16.3125 13.3875 16.0875 13.8375 15.975 14.175C15.8625 14.625 15.6375 14.85 15.3 15.1875C14.9625 15.525 14.7375 15.75 14.2875 15.8625C13.95 15.975 13.5 16.0875 12.6 16.2H5.4C4.5 16.2 4.05 15.975 3.7125 15.8625C3.2625 15.75 3.0375 15.525 2.7 15.1875C2.3625 14.85 2.1375 14.625 2.025 14.175C1.9125 13.8375 1.8 13.3875 1.6875 12.4875V5.2875C1.6875 4.3875 1.9125 3.9375 2.025 3.6C2.1375 3.15 2.3625 2.925 2.7 2.5875C3.0375 2.25 3.2625 2.025 3.7125 1.9125C4.05 1.9125 4.5 1.6875 5.4 1.6875C6.3 1.6875 6.6375 1.575 9 1.575ZM9 0H5.2875C4.275 0 3.7125 0.225 3.15 0.45C2.5875 0.675 2.025 1.0125 1.575 1.4625C1.0125 2.025 0.675 2.475 0.45 3.15C0.225 3.7125 0.1125 4.3875 0.1125 5.2875C0 6.3 0 6.525 0 9V12.7125C0 13.725 0.225 14.2875 0.45 14.85C0.675 15.4125 1.0125 15.975 1.4625 16.425C1.9125 16.875 2.475 17.2125 3.0375 17.4375C3.6 17.6625 4.275 17.775 5.175 17.8875H12.6C13.6125 17.8875 14.175 17.6625 14.7375 17.4375C15.3 17.2125 15.8625 16.875 16.3125 16.425C16.7625 15.975 17.1 15.4125 17.325 14.85C17.55 14.2875 17.6625 13.6125 17.775 12.7125V5.2875C17.775 4.275 17.55 3.7125 17.325 3.15C17.1 2.5875 16.7625 2.025 16.3125 1.575C15.8625 1.125 15.3 0.7875 14.7375 0.5625C14.175 0.3375 13.5 0.225 12.6 0.1125C11.7 0 11.475 0 9 0Z" fill="#FFFDFD"/>
<path d="M9.0002 4.38711C6.4127 4.38711 4.3877 6.41211 4.3877 8.99961C4.3877 11.5871 6.4127 13.6121 9.0002 13.6121C11.5877 13.6121 13.6127 11.5871 13.6127 8.99961C13.6127 6.41211 11.5877 4.38711 9.0002 4.38711ZM9.0002 12.0371C7.3127 12.0371 5.9627 10.6871 5.9627 8.99961C5.9627 7.31211 7.3127 5.96211 9.0002 5.96211C10.6877 5.96211 12.0377 7.31211 12.0377 8.99961C12.0377 10.6871 10.6877 12.0371 9.0002 12.0371ZM14.8502 4.16211C14.8502 4.72461 14.4002 5.28711 13.7252 5.28711C13.1627 5.28711 12.6002 4.83711 12.6002 4.16211C12.6002 3.48711 13.0502 3.03711 13.7252 3.03711C14.4002 3.14961 14.8502 3.59961 14.8502 4.16211Z" fill="#FFFDFD"/>
</g>
<defs>
<clipPath id="clip0_3865_14605">
<rect width="18" height="18" fill="white"/>
</clipPath>
</defs>
</svg>
